<?xml version="1.0" encoding="UTF-8" standalone="no"?><svg xmlns="http://www.w3.org/2000/svg" xmlns:xlink="http://www.w3.org/1999/xlink" contentScriptType="application/ecmascript" contentStyleType="text/css" height="325px" preserveAspectRatio="none" style="width:452px;height:325px;" version="1.1" viewBox="0 0 452 325" width="452px" zoomAndPan="magnify"><defs><filter height="300%" id="fp4u8876omjck" width="300%" x="-1" y="-1"><feGaussianBlur result="blurOut" stdDeviation="2.0"/><feColorMatrix in="blurOut" result="blurOut2" type="matrix" values="0 0 0 0 0 0 0 0 0 0 0 0 0 0 0 0 0 0 .4 0"/><feOffset dx="4.0" dy="4.0" in="blurOut2" result="blurOut3"/><feBlend in="SourceGraphic" in2="blurOut3" mode="normal"/></filter></defs><g><rect fill="#FFFFFF" filter="url(#fp4u8876omjck)" height="115.7578" style="stroke: #000000; stroke-width: 2.0;" width="260" x="13" y="104.6094"/><line style="stroke: #A80036; stroke-width: 1.0; stroke-dasharray: 5.0,5.0;" x1="47" x2="47" y1="87.6094" y2="237.3672"/><line style="stroke: #A80036; stroke-width: 1.0; stroke-dasharray: 5.0,5.0;" x1="119" x2="119" y1="87.6094" y2="237.3672"/><line style="stroke: #A80036; stroke-width: 1.0; stroke-dasharray: 5.0,5.0;" x1="212" x2="212" y1="87.6094" y2="237.3672"/><line style="stroke: #A80036; stroke-width: 1.0; stroke-dasharray: 5.0,5.0;" x1="298" x2="298" y1="87.6094" y2="237.3672"/><line style="stroke: #A80036; stroke-width: 1.0; stroke-dasharray: 5.0,5.0;" x1="392" x2="392" y1="87.6094" y2="237.3672"/><text fill="#000000" font-family="sans-serif" font-size="14" lengthAdjust="spacingAndGlyphs" textLength="42" x="23" y="84.5332">评测机</text><ellipse cx="47" cy="13" fill="#FEFECE" filter="url(#fp4u8876omjck)" rx="8" ry="8" style="stroke: #A80036; stroke-width: 2.0;"/><path d="M47,21 L47,48 M34,29 L60,29 M47,48 L34,63 M47,48 L60,63 " fill="none" filter="url(#fp4u8876omjck)" style="stroke: #A80036; stroke-width: 2.0;"/><text fill="#000000" font-family="sans-serif" font-size="14" lengthAdjust="spacingAndGlyphs" textLength="42" x="23" y="250.9004">评测机</text><ellipse cx="47" cy="263.9766" fill="#FEFECE" filter="url(#fp4u8876omjck)" rx="8" ry="8" style="stroke: #A80036; stroke-width: 2.0;"/><path d="M47,271.9766 L47,298.9766 M34,279.9766 L60,279.9766 M47,298.9766 L34,313.9766 M47,298.9766 L60,313.9766 " fill="none" filter="url(#fp4u8876omjck)" style="stroke: #A80036; stroke-width: 2.0;"/><text fill="#000000" font-family="sans-serif" font-size="14" lengthAdjust="spacingAndGlyphs" textLength="70" x="81" y="84.5332">评测机缓存</text><path d="M101,34 C101,24 119,24 119,24 C119,24 137,24 137,34 L137,60 C137,70 119,70 119,70 C119,70 101,70 101,60 L101,34 " fill="#FEFECE" filter="url(#fp4u8876omjck)" style="stroke: #000000; stroke-width: 1.5;"/><path d="M101,34 C101,44 119,44 119,44 C119,44 137,44 137,34 " fill="none" style="stroke: #000000; stroke-width: 1.5;"/><text fill="#000000" font-family="sans-serif" font-size="14" lengthAdjust="spacingAndGlyphs" textLength="70" x="81" y="250.9004">评测机缓存</text><path d="M101,263.9766 C101,253.9766 119,253.9766 119,253.9766 C119,253.9766 137,253.9766 137,263.9766 L137,289.9766 C137,299.9766 119,299.9766 119,299.9766 C119,299.9766 101,299.9766 101,289.9766 L101,263.9766 " fill="#FEFECE" filter="url(#fp4u8876omjck)" style="stroke: #000000; stroke-width: 1.5;"/><path d="M101,263.9766 C101,273.9766 119,273.9766 119,273.9766 C119,273.9766 137,273.9766 137,263.9766 " fill="none" style="stroke: #000000; stroke-width: 1.5;"/><text fill="#000000" font-family="sans-serif" font-size="14" lengthAdjust="spacingAndGlyphs" textLength="84" x="167" y="84.5332">评测机控制端</text><ellipse cx="212" cy="54" fill="#FEFECE" filter="url(#fp4u8876omjck)" rx="12" ry="12" style="stroke: #A80036; stroke-width: 2.0;"/><polygon fill="#A80036" points="208,42,214,37,212,42,214,47,208,42" style="stroke: #A80036; stroke-width: 1.0;"/><text fill="#000000" font-family="sans-serif" font-size="14" lengthAdjust="spacingAndGlyphs" textLength="84" x="167" y="250.9004">评测机控制端</text><ellipse cx="212" cy="269.9766" fill="#FEFECE" filter="url(#fp4u8876omjck)" rx="12" ry="12" style="stroke: #A80036; stroke-width: 2.0;"/><polygon fill="#A80036" points="208,257.9766,214,252.9766,212,257.9766,214,262.9766,208,257.9766" style="stroke: #A80036; stroke-width: 1.0;"/><text fill="#000000" font-family="sans-serif" font-size="14" lengthAdjust="spacingAndGlyphs" textLength="56" x="267" y="84.5332">后端缓存</text><path d="M280,34 C280,24 298,24 298,24 C298,24 316,24 316,34 L316,60 C316,70 298,70 298,70 C298,70 280,70 280,60 L280,34 " fill="#FEFECE" filter="url(#fp4u8876omjck)" style="stroke: #000000; stroke-width: 1.5;"/><path d="M280,34 C280,44 298,44 298,44 C298,44 316,44 316,34 " fill="none" style="stroke: #000000; stroke-width: 1.5;"/><text fill="#000000" font-family="sans-serif" font-size="14" lengthAdjust="spacingAndGlyphs" textLength="56" x="267" y="250.9004">后端缓存</text><path d="M280,263.9766 C280,253.9766 298,253.9766 298,253.9766 C298,253.9766 316,253.9766 316,263.9766 L316,289.9766 C316,299.9766 298,299.9766 298,299.9766 C298,299.9766 280,299.9766 280,289.9766 L280,263.9766 " fill="#FEFECE" filter="url(#fp4u8876omjck)" style="stroke: #000000; stroke-width: 1.5;"/><path d="M280,263.9766 C280,273.9766 298,273.9766 298,273.9766 C298,273.9766 316,273.9766 316,263.9766 " fill="none" style="stroke: #000000; stroke-width: 1.5;"/><rect fill="#FEFECE" filter="url(#fp4u8876omjck)" height="31.6094" style="stroke: #A80036; stroke-width: 1.5;" width="98" x="343" y="47"/><rect fill="#FEFECE" filter="url(#fp4u8876omjck)" height="31.6094" style="stroke: #A80036; stroke-width: 1.5;" width="98" x="339" y="51"/><text fill="#000000" font-family="sans-serif" font-size="14" lengthAdjust="spacingAndGlyphs" textLength="84" x="346" y="72.5332">后端文件系统</text><rect fill="#FEFECE" filter="url(#fp4u8876omjck)" height="31.6094" style="stroke: #A80036; stroke-width: 1.5;" width="98" x="343" y="236.3672"/><rect fill="#FEFECE" filter="url(#fp4u8876omjck)" height="31.6094" style="stroke: #A80036; stroke-width: 1.5;" width="98" x="339" y="240.3672"/><text fill="#000000" font-family="sans-serif" font-size="14" lengthAdjust="spacingAndGlyphs" textLength="84" x="346" y="261.9004">后端文件系统</text><path d="M13,104.6094 L74,104.6094 L74,112.6094 L64,122.6094 L13,122.6094 L13,104.6094 " fill="#EEEEEE" style="stroke: #000000; stroke-width: 1.0;"/><rect fill="none" height="115.7578" style="stroke: #000000; stroke-width: 2.0;" width="260" x="13" y="104.6094"/><text fill="#000000" font-family="sans-serif" font-size="13" font-weight="bold" lengthAdjust="spacingAndGlyphs" textLength="16" x="28" y="119.1045">alt</text><text fill="#000000" font-family="sans-serif" font-size="11" font-weight="bold" lengthAdjust="spacingAndGlyphs" textLength="40" x="89" y="118.0283">[Break]</text><line style="stroke: #A80036; stroke-width: 2.0;" x1="194" x2="204" y1="140.3125" y2="150.3125"/><line style="stroke: #A80036; stroke-width: 2.0;" x1="194" x2="204" y1="150.3125" y2="140.3125"/><line style="stroke: #A80036; stroke-width: 1.0; stroke-dasharray: 2.0,2.0;" x1="47" x2="199" y1="145.3125" y2="145.3125"/><text fill="#000000" font-family="sans-serif" font-size="13" lengthAdjust="spacingAndGlyphs" textLength="52" x="54" y="140.4561">链接断开</text><polygon fill="#FBFB77" filter="url(#fp4u8876omjck)" points="171,158.3125,253,158.3125,263,186.3125,253,215.3125,171,215.3125,161,186.3125,171,158.3125" style="stroke: #A80036; stroke-width: 1.0;"/><text fill="#000000" font-family="sans-serif" font-size="13" lengthAdjust="spacingAndGlyphs" textLength="52" x="173" y="175.8076">禁用密钥</text><text fill="#000000" font-family="sans-serif" font-size="13" lengthAdjust="spacingAndGlyphs" textLength="52" x="173" y="192.1592">清理令牌</text><text fill="#000000" font-family="sans-serif" font-size="13" lengthAdjust="spacingAndGlyphs" textLength="78" x="173" y="208.5107">重发相关任务</text><!--MD5=[a3a7963c910ab31b5b268dbb8f25bde6]
@startuml
scale 1
actor "评测机" as j
database "评测机缓存" as jb
control "评测机控制端" as b
database "后端缓存" as bb
collections "后端文件系统" as bfs
alt Break
j - -x b : 链接断开
hnote over b : 禁用密钥\n清理令牌\n重发相关任务
end
@enduml

PlantUML version 1.2020.01(Mon Feb 17 01:40:32 CST 2020)
(GPL source distribution)
Java Runtime: OpenJDK Runtime Environment
JVM: OpenJDK 64-Bit Server VM
Java Version: 14+36-1461
Operating System: Windows 10
Default Encoding: UTF8
Language: zh
Country: CN
--></g></svg>