<?xml version="1.0" encoding="UTF-8" standalone="no"?><svg xmlns="http://www.w3.org/2000/svg" xmlns:xlink="http://www.w3.org/1999/xlink" contentScriptType="application/ecmascript" contentStyleType="text/css" height="601px" preserveAspectRatio="none" style="width:644px;height:601px;" version="1.1" viewBox="0 0 644 601" width="644px" zoomAndPan="magnify"><defs><filter height="300%" id="f1hivftq62qlx7" width="300%" x="-1" y="-1"><feGaussianBlur result="blurOut" stdDeviation="2.0"/><feColorMatrix in="blurOut" result="blurOut2" type="matrix" values="0 0 0 0 0 0 0 0 0 0 0 0 0 0 0 0 0 0 .4 0"/><feOffset dx="4.0" dy="4.0" in="blurOut2" result="blurOut3"/><feBlend in="SourceGraphic" in2="blurOut3" mode="normal"/></filter></defs><g><!--MD5=[2219b76f6ffe160e0f458b66e9ec6ce6]
cluster 评测系统--><rect fill="#FFFFFF" filter="url(#f1hivftq62qlx7)" height="467.5" style="stroke: #000000; stroke-width: 1.5;" width="527" x="106" y="122.5"/><path d="M172,123.5 L172,133.1094 L162,143.1094 L106,143.1094 " fill="none" style="stroke: #000000; stroke-width: 1.5;"/><text fill="#000000" font-family="sans-serif" font-size="14" font-weight="bold" lengthAdjust="spacingAndGlyphs" textLength="56" x="109" y="138.0332">评测系统</text><!--MD5=[25ff365701eeaa6a9189567ef4567f81]
cluster jbfs--><polygon fill="#FFFFFF" filter="url(#f1hivftq62qlx7)" points="420,406,552,406,559,429.6094,601,429.6094,601,558,420,558,420,406" style="stroke: #000000; stroke-width: 1.5;"/><line style="stroke: #000000; stroke-width: 1.5;" x1="420" x2="559" y1="429.6094" y2="429.6094"/><text fill="#000000" font-family="sans-serif" font-size="14" font-weight="bold" lengthAdjust="spacingAndGlyphs" textLength="126" x="424" y="422.5332">评测控制端文件系统</text><!--MD5=[f278101153e2de1c34234ec841828d82]
entity judger--><polygon fill="#FEFECE" filter="url(#f1hivftq62qlx7)" points="296,313,306,303,378,303,378,340.6094,368,350.6094,296,350.6094,296,313" style="stroke: #000000; stroke-width: 1.5;"/><line style="stroke: #000000; stroke-width: 1.5;" x1="368" x2="377" y1="313" y2="304"/><line style="stroke: #000000; stroke-width: 1.5;" x1="296" x2="368" y1="313" y2="313"/><line style="stroke: #000000; stroke-width: 1.5;" x1="368" x2="368" y1="313" y2="350.6094"/><text fill="#000000" font-family="sans-serif" font-size="14" lengthAdjust="spacingAndGlyphs" textLength="42" x="311" y="337.5332">评测机</text><!--MD5=[ebc9fc8a35257e1c6a027ae1f176e6ce]
entity judgerbackend--><ellipse cx="337" cy="174.5" fill="#FEFECE" filter="url(#f1hivftq62qlx7)" rx="12" ry="12" style="stroke: #A80036; stroke-width: 2.0;"/><polygon fill="#A80036" points="333,162.5,339,157.5,337,162.5,339,167.5,333,162.5" style="stroke: #A80036; stroke-width: 1.0;"/><text fill="#000000" font-family="sans-serif" font-size="14" lengthAdjust="spacingAndGlyphs" textLength="70" x="302" y="205.0332">评测控制端</text><!--MD5=[aa44c75bcba5e917b8136e13b084f910]
entity 评测文件--><polygon fill="#FEFECE" filter="url(#f1hivftq62qlx7)" points="463,450,509,450,516,471,577,471,577,533.8281,463,533.8281,463,450" style="stroke: #000000; stroke-width: 1.5;"/><line style="stroke: #000000; stroke-width: 1.5;" x1="463" x2="516" y1="471" y2="471"/><text fill="#000000" font-family="sans-serif" font-size="14" lengthAdjust="spacingAndGlyphs" textLength="84" x="473" y="492.5332">题目输入输出</text><line style="stroke: #000000; stroke-width: 1.0;" x1="464" x2="576" y1="495.6094" y2="495.6094"/><line style="stroke: #000000; stroke-width: 1.0;" x1="464" x2="576" y1="497.6094" y2="497.6094"/><text fill="#000000" font-family="sans-serif" font-size="14" lengthAdjust="spacingAndGlyphs" textLength="52" x="479" y="514.1426">SPJ代码</text><!--MD5=[791e9a50e8060f635b8d75367e922f94]
entity webbackend--><path d="M316.5,12.5 L316.5,36.5 M316.5,24.5 L333.5,24.5 " fill="none" filter="url(#f1hivftq62qlx7)" style="stroke: #A80036; stroke-width: 2.0;"/><ellipse cx="345.5" cy="24.5" fill="#FEFECE" filter="url(#f1hivftq62qlx7)" rx="12" ry="12" style="stroke: #A80036; stroke-width: 2.0;"/><text fill="#000000" font-family="sans-serif" font-size="14" lengthAdjust="spacingAndGlyphs" textLength="56" x="309" y="55.0332">客户系统</text><!--MD5=[8244371246da6e8a77886c5dbe262e99]
entity statususer--><ellipse cx="48" cy="151.5" fill="#FEFECE" filter="url(#f1hivftq62qlx7)" rx="8" ry="8" style="stroke: #A80036; stroke-width: 1.5;"/><path d="M48,159.5 L48,186.5 M35,167.5 L61,167.5 M48,186.5 L35,201.5 M48,186.5 L61,201.5 " fill="none" filter="url(#f1hivftq62qlx7)" style="stroke: #A80036; stroke-width: 1.5;"/><text fill="#000000" font-family="sans-serif" font-size="14" lengthAdjust="spacingAndGlyphs" textLength="84" x="6" y="221.5332">状态观察用户</text><!--MD5=[68756531e407ff2ed9b7136e209f2df0]
link webbackend to judgerbackend--><path d="M335.37,58.681 C334.817,67.996 334.271,78.739 334,88.5 C333.4,110.132 334.225,134.561 335.161,153.093 " fill="none" id="webbackend-&gt;judgerbackend" style="stroke: #A80036; stroke-width: 1.0;"/><polygon fill="#A80036" points="335.427,158.156,338.9483,148.9582,335.1641,153.1629,330.9594,149.3787,335.427,158.156" style="stroke: #A80036; stroke-width: 1.0;"/><text fill="#000000" font-family="sans-serif" font-size="13" lengthAdjust="spacingAndGlyphs" textLength="52" x="335" y="102.9951">评测指令</text><!--MD5=[68756531e407ff2ed9b7136e209f2df0]
link webbackend to judgerbackend--><path d="M365.185,52.836 C381.943,66.26 398.737,85.699 392,106.5 C386.315,124.053 374.892,140.953 363.922,154.34 " fill="none" id="webbackend-&gt;judgerbackend-1" style="stroke: #A80036; stroke-width: 1.0;"/><polygon fill="#A80036" points="360.539,158.379,369.3842,154.0474,363.7493,154.5458,363.251,148.9109,360.539,158.379" style="stroke: #A80036; stroke-width: 1.0;"/><text fill="#000000" font-family="sans-serif" font-size="13" lengthAdjust="spacingAndGlyphs" textLength="78" x="394" y="102.9951">评测文件更新</text><!--MD5=[bd14be7a2accfc941956f07dfbeb02ea]
link judgerbackend to webbackend--><path d="M301.769,166.929 C268.601,149.898 226.562,120.702 245,88.5 C257.609,66.479 283.075,52.561 304.023,44.381 " fill="none" id="judgerbackend-&gt;webbackend" style="stroke: #A80036; stroke-width: 1.0;"/><polygon fill="#A80036" points="308.966,42.523,299.1342,41.9444,304.2855,44.2817,301.9482,49.4331,308.966,42.523" style="stroke: #A80036; stroke-width: 1.0;"/><text fill="#000000" font-family="sans-serif" font-size="13" lengthAdjust="spacingAndGlyphs" textLength="78" x="246" y="102.9951">返回评测结果</text><!--MD5=[421232e754debf6043e9dd7755be53a2]
reverse link statususer to judgerbackend--><path d="M95.1563,183.5 C153.052,183.5 249.915,183.5 301.745,183.5 " fill="none" id="statususer&lt;-judgerbackend" style="stroke: #A80036; stroke-width: 1.0;"/><polygon fill="#A80036" points="90.0231,183.5,99.0231,187.5,95.0231,183.5,99.0231,179.5,90.0231,183.5" style="stroke: #A80036; stroke-width: 1.0;"/><text fill="#000000" font-family="sans-serif" font-size="13" lengthAdjust="spacingAndGlyphs" textLength="104" x="144" y="176.9951">评测系统运行状态</text><!--MD5=[f604d165f13fefe22ef4a4775c761e8f]
link judgerbackend to jbfs--><path d="M377.282,184.485 C427.842,186.907 512.799,199.591 553,255 C557.698,261.475 555.878,265.536 553,273 C527.754,338.468 478.215,327.158 447,390 C444.4998,395.0335 442.3271,400.3575 440.4394,405.8243 " fill="none" id="judgerbackend-jbfs" style="stroke: #A80036; stroke-width: 1.0;"/><polygon fill="#A80036" points="440.4394,405.8243,447.1579,398.6228,442.0714,401.0981,439.5961,396.0116,440.4394,405.8243" style="stroke: #A80036; stroke-width: 1.0;"/><polygon fill="#A80036" points="372.198,184.27,381.0221,188.6445,377.1936,184.48,381.3581,180.6515,372.198,184.27" style="stroke: #A80036; stroke-width: 1.0;"/><text fill="#000000" font-family="sans-serif" font-size="13" lengthAdjust="spacingAndGlyphs" textLength="78" x="536" y="332.4951">读写题目数据</text><!--MD5=[f3892a8cf83a96feb17d597ecc5a0546]
link judgerbackend to judger--><path d="M301.772,188.048 C237.873,195.899 113.082,218.549 154,273 C170.44,294.877 242.084,310.616 290.699,319.012 " fill="none" id="judgerbackend-&gt;judger" style="stroke: #A80036; stroke-width: 1.0;"/><polygon fill="#A80036" points="295.917,319.9,287.717,314.4448,290.9881,319.0599,286.3729,322.331,295.917,319.9" style="stroke: #A80036; stroke-width: 1.0;"/><text fill="#000000" font-family="sans-serif" font-size="13" lengthAdjust="spacingAndGlyphs" textLength="78" x="155" y="269.4951">发放评测指令</text><!--MD5=[f3892a8cf83a96feb17d597ecc5a0546]
link judgerbackend to judger--><path d="M307.176,208.732 C294.362,221.068 280.79,237.211 274,255 C267.554,271.887 278.198,287.338 292.469,299.482 " fill="none" id="judgerbackend-&gt;judger-1" style="stroke: #A80036; stroke-width: 1.0;"/><polygon fill="#A80036" points="296.58,302.819,292.1124,294.0417,292.6976,299.6682,287.0711,300.2535,296.58,302.819" style="stroke: #A80036; stroke-width: 1.0;"/><text fill="#000000" font-family="sans-serif" font-size="13" lengthAdjust="spacingAndGlyphs" textLength="78" x="275" y="269.4951">发放题目数据</text><!--MD5=[f3bd5c8b8fe2b05df9d3cdf883aeffe2]
link judger to judgerbackend--><path d="M348.377,302.827 C352.242,293.754 356.07,283.111 358,273 C361.816,253.009 356.467,230.715 350.214,213.505 " fill="none" id="judger-&gt;judgerbackend" style="stroke: #A80036; stroke-width: 1.0;"/><polygon fill="#A80036" points="348.433,208.792,347.8721,218.6249,350.2002,213.4693,355.3558,215.7974,348.433,208.792" style="stroke: #A80036; stroke-width: 1.0;"/><text fill="#000000" font-family="sans-serif" font-size="13" lengthAdjust="spacingAndGlyphs" textLength="78" x="360" y="269.4951">返回评测结果</text><!--MD5=[f3bd5c8b8fe2b05df9d3cdf883aeffe2]
link judger to judgerbackend--><path d="M378.116,317.668 C402.679,310.347 431.946,296.964 447,273 C468.55,238.696 416.421,211.797 376.769,197.041 " fill="none" id="judger-&gt;judgerbackend-1" style="stroke: #A80036; stroke-width: 1.0;"/><polygon fill="#A80036" points="372.001,195.302,379.086,202.1433,376.6984,197.015,381.8267,194.6274,372.001,195.302" style="stroke: #A80036; stroke-width: 1.0;"/><text fill="#000000" font-family="sans-serif" font-size="13" lengthAdjust="spacingAndGlyphs" textLength="91" x="453" y="269.4951">返回评测机状态</text><!--MD5=[e386397f910479b7f5b6d63138c559f0]
@startuml
boundary "客户系统" as webbackend
actor "状态观察用户" as statususer
frame "评测系统" {
  node "评测机" as judger
  control "评测控制端" as judgerbackend
  folder "评测控制端文件系统" as jbfs {
    folder 评测文件[
      题目输入输出
      ===
      SPJ代码
    ]
  }
}
webbackend - - -> judgerbackend : 评测指令
webbackend - -> judgerbackend : 评测文件更新
statususer <-r- - judgerbackend : 评测系统运行状态
judgerbackend <- - -> jbfs : 读写题目数据
judgerbackend - -> judger : 发放评测指令
judgerbackend - -> judger : 发放题目数据
judgerbackend - -> webbackend : 返回评测结果
judger - -> judgerbackend : 返回评测结果
judger - -> judgerbackend : 返回评测机状态
@enduml

PlantUML version 1.2020.01(Mon Feb 17 01:40:32 CST 2020)
(GPL source distribution)
Java Runtime: OpenJDK Runtime Environment
JVM: OpenJDK 64-Bit Server VM
Java Version: 14+36-1461
Operating System: Windows 10
Default Encoding: UTF8
Language: zh
Country: CN
--></g></svg>